<svg width="192" height="192" viewBox="0 0 192 192" fill="none" xmlns="http://www.w3.org/2000/svg">
  <rect width="192" height="192" rx="30" fill="url(#paint0_linear)"/>
  <path d="M58.6667 77.3333V114.667C58.6667 120.19 63.1433 124.667 68.6667 124.667H91.3333C96.8567 124.667 101.333 120.19 101.333 114.667V106C101.333 100.477 96.8567 96 91.3333 96H78.6667C73.1433 96 68.6667 91.5233 68.6667 86V77.3333C68.6667 71.81 73.1433 67.3333 78.6667 67.3333H91.3333C96.8567 67.3333 101.333 71.81 101.333 77.3333" stroke="white" stroke-width="10" stroke-linecap="round"/>
  <path d="M124 67.3333V124.667" stroke="white" stroke-width="10" stroke-linecap="round"/>
  <path d="M134 67.3333H114" stroke="white" stroke-width="10" stroke-linecap="round"/>
  <path d="M134 124.667H114" stroke="white" stroke-width="10" stroke-linecap="round"/>
  <path d="M134 96H114" stroke="white" stroke-width="10" stroke-linecap="round"/>
  <defs>
    <linearGradient id="paint0_linear" x1="0" y1="0" x2="192" y2="192" gradientUnits="userSpaceOnUse">
      <stop stop-color="#5E0099"/>
      <stop offset="1" stop-color="#9900FF"/>
    </linearGradient>
  </defs>
</svg> 